<?xml version="1.0" standalone="no"?>
<!DOCTYPE svg PUBLIC "-//W3C//DTD SVG 20010904//EN"
 "http://www.w3.org/TR/2001/REC-SVG-20010904/DTD/svg10.dtd">
<svg version="1.0" xmlns="http://www.w3.org/2000/svg"
 width="512.000000pt" height="512.000000pt" viewBox="0 0 512.000000 512.000000"
 preserveAspectRatio="xMidYMid meet">

<g transform="translate(0.000000,512.000000) scale(0.100000,-0.100000)"
fill="#000000" stroke="none">
<path d="M3630 5114 c-322 -40 -591 -171 -815 -398 -199 -201 -313 -415 -372
-696 -25 -119 -24 -382 0 -500 33 -156 108 -343 183 -461 16 -26 15 -35 -46
-278 -34 -138 -60 -254 -57 -258 4 -3 120 23 258 57 243 61 252 62 278 46 118
-75 305 -150 461 -183 120 -25 381 -24 505 1 275 57 499 178 696 375 197 197
318 421 376 701 24 118 24 382 0 500 -39 185 -110 356 -212 510 -63 95 -258
291 -351 352 -161 107 -335 180 -506 213 -81 16 -328 28 -398 19z m380 -322
c198 -52 365 -146 501 -281 135 -135 226 -297 282 -501 29 -109 29 -371 0
-480 -56 -204 -147 -366 -282 -501 -237 -236 -579 -348 -899 -295 -172 29
-299 81 -443 181 l-76 54 -78 -20 c-42 -11 -79 -18 -82 -16 -2 3 5 40 16 82
l20 78 -54 76 c-278 399 -255 910 57 1281 153 182 404 323 638 359 98 15 311
6 400 -17z"/>
<path d="M3620 4370 l0 -150 150 0 150 0 0 150 0 150 -150 0 -150 0 0 -150z"/>
<path d="M3620 3470 l0 -450 150 0 150 0 0 450 0 450 -150 0 -150 0 0 -450z"/>
<path d="M1372 4200 c-109 -29 -187 -74 -272 -160 -87 -86 -131 -163 -160
-276 -36 -141 -18 -294 52 -427 42 -81 164 -203 245 -245 34 -18 95 -41 135
-52 40 -10 71 -19 68 -20 -3 0 -46 -9 -95 -19 -395 -81 -685 -405 -721 -806
l-7 -75 -308 0 -309 0 0 -150 0 -150 160 0 160 0 0 -910 0 -910 150 0 150 0 0
150 0 150 1500 0 1500 0 0 -150 0 -150 150 0 150 0 0 910 0 910 150 0 150 0 0
150 0 150 -899 0 -898 0 -7 75 c-29 325 -223 600 -519 741 -74 35 -210 74
-257 74 -52 0 -39 14 30 31 107 27 185 73 270 159 87 86 131 163 160 276 36
141 18 294 -52 427 -42 81 -164 203 -245 245 -132 69 -291 88 -431 52z m282
-314 c105 -51 161 -144 161 -266 0 -85 -21 -142 -74 -203 -82 -92 -237 -121
-353 -64 -160 79 -215 278 -118 430 80 126 246 170 384 103z m10 -1186 c43
-11 105 -34 139 -52 81 -42 203 -164 245 -245 35 -66 72 -195 72 -250 l0 -33
-600 0 -600 0 0 33 c0 55 37 184 72 250 42 80 163 201 245 245 132 70 286 88
427 52z m1956 -1490 l0 -610 -1500 0 -1500 0 0 610 0 610 1500 0 1500 0 0
-610z"/>
</g>
</svg>
