<?xml version="1.0" encoding="iso-8859-1"?>
<!-- Generator: Adobe Illustrator 19.0.0, SVG Export Plug-In . SVG Version: 6.00 Build 0)  -->
<svg version="1.1" id="Capa_1" xmlns="http://www.w3.org/2000/svg" xmlns:xlink="http://www.w3.org/1999/xlink" x="0px" y="0px"
	 viewBox="0 0 512 512" style="enable-background:new 0 0 512 512;" xml:space="preserve">
<g>
	<g>
		<path d="M501.333,277.333H330.667c-5.888,0-10.667,4.779-10.667,10.667s4.779,10.667,10.667,10.667h170.667
			c5.888,0,10.667-4.779,10.667-10.667S507.221,277.333,501.333,277.333z"/>
	</g>
</g>
<g>
	<g>
		<path d="M501.333,341.333H10.667C4.779,341.333,0,346.112,0,352c0,5.888,4.779,10.667,10.667,10.667h490.667
			c5.888,0,10.667-4.779,10.667-10.667C512,346.112,507.221,341.333,501.333,341.333z"/>
	</g>
</g>
<g>
	<g>
		<path d="M501.333,405.333H10.667C4.779,405.333,0,410.112,0,416c0,5.888,4.779,10.667,10.667,10.667h490.667
			c5.888,0,10.667-4.779,10.667-10.667C512,410.112,507.221,405.333,501.333,405.333z"/>
	</g>
</g>
<g>
	<g>
		<path d="M501.333,469.333H10.667C4.779,469.333,0,474.112,0,480c0,5.888,4.779,10.667,10.667,10.667h490.667
			c5.888,0,10.667-4.779,10.667-10.667C512,474.112,507.221,469.333,501.333,469.333z"/>
	</g>
</g>
<g>
	<g>
		<path d="M266.667,21.333h-256C4.779,21.333,0,26.112,0,32v256c0,5.888,4.779,10.667,10.667,10.667h256
			c5.888,0,10.667-4.779,10.667-10.667V32C277.333,26.112,272.555,21.333,266.667,21.333z M192,74.667c17.664,0,32,14.336,32,32
			s-14.336,32-32,32s-32-14.336-32-32S174.336,74.667,192,74.667z M233.067,250.923C231.125,254.059,227.691,256,224,256H53.333
			c-3.435,0-6.656-1.643-8.661-4.437c-2.005-2.773-2.539-6.357-1.451-9.6l42.667-128c1.365-4.096,5.056-6.955,9.344-7.275
			c4.395-0.341,8.384,2.005,10.304,5.867l36.053,72.085l32.192-32.192c2.411-2.432,5.781-3.563,9.259-2.987
			c3.392,0.555,6.293,2.688,7.829,5.76l42.667,85.333C235.2,243.861,235.008,247.787,233.067,250.923z"/>
	</g>
</g>
<g>
</g>
<g>
</g>
<g>
</g>
<g>
</g>
<g>
</g>
<g>
</g>
<g>
</g>
<g>
</g>
<g>
</g>
<g>
</g>
<g>
</g>
<g>
</g>
<g>
</g>
<g>
</g>
<g>
</g>
</svg>
