<?xml version="1.0" standalone="no"?>
<!DOCTYPE svg PUBLIC "-//W3C//DTD SVG 20010904//EN"
 "http://www.w3.org/TR/2001/REC-SVG-20010904/DTD/svg10.dtd">
<svg version="1.0" xmlns="http://www.w3.org/2000/svg"
 width="512.000000pt" height="512.000000pt" viewBox="0 0 512.000000 512.000000"
 preserveAspectRatio="xMidYMid meet">

<g transform="translate(0.000000,512.000000) scale(0.100000,-0.100000)"
fill="#000000" stroke="none">
<path d="M1625 4544 c-88 -42 -168 -83 -177 -91 -24 -22 -23 -78 2 -103 30
-30 71 -25 158 19 42 21 104 50 138 65 l60 27 280 -131 c153 -73 282 -135 286
-138 5 -6 -1437 -693 -1520 -724 -24 -9 -57 4 -310 122 -246 117 -307 150
-274 150 12 0 984 459 1000 472 6 6 12 28 12 49 0 52 -30 83 -74 76 -51 -9
-1158 -536 -1183 -563 -27 -30 -29 -64 -6 -92 10 -11 156 -85 325 -163 168
-79 303 -147 300 -151 -4 -3 -142 -70 -307 -147 -165 -78 -308 -151 -317 -162
-24 -29 -22 -66 5 -92 12 -12 180 -96 374 -187 l352 -165 3 -627 c3 -554 5
-629 19 -643 20 -21 1766 -845 1789 -845 20 0 1766 822 1784 840 8 8 12 199
16 641 l5 629 360 170 c198 94 368 180 378 191 22 27 22 61 -1 88 -14 18 -254
136 -562 277 l-74 35 309 145 c171 81 318 155 327 166 24 27 22 62 -4 92 -14
15 -201 109 -473 236 -247 117 -639 302 -871 411 -232 109 -429 199 -439 199
-10 0 -184 -78 -386 -174 l-369 -175 -369 175 c-202 96 -377 174 -387 174 -10
0 -91 -35 -179 -76z m2457 -444 c419 -198 766 -364 770 -368 8 -8 -538 -272
-561 -272 -6 0 -167 74 -358 164 -340 160 -1004 474 -1132 535 l-64 30 129 61
c71 34 174 82 229 108 55 26 125 59 155 74 30 15 58 27 62 27 4 1 350 -161
770 -359z m-735 -366 c419 -197 759 -362 755 -366 -4 -3 -352 -169 -775 -368
l-767 -363 -298 141 c-163 77 -470 222 -682 323 -212 100 -428 201 -480 226
l-94 44 419 198 c231 110 578 274 770 365 193 91 359 164 370 163 11 -2 363
-165 782 -363z m-1737 -814 c420 -198 766 -362 767 -364 5 -4 -557 -269 -571
-269 -7 0 -201 89 -432 198 -230 108 -572 269 -759 357 -187 88 -344 164 -349
168 -4 5 43 32 105 62 63 29 190 90 284 135 93 45 175 80 180 78 6 -2 354
-166 775 -365z m2961 236 c156 -74 282 -138 281 -143 -4 -9 -1534 -733 -1542
-729 -3 2 -132 63 -288 136 l-284 134 34 17 c18 9 208 99 423 200 379 179
1089 516 1091 518 0 1 129 -59 285 -133z m-3224 -825 c231 -109 430 -202 442
-206 22 -7 46 3 460 199 123 58 226 106 228 106 1 0 3 -389 3 -865 0 -476 -2
-865 -4 -865 -2 0 -357 166 -788 370 l-783 370 -3 545 c-2 445 0 545 11 545 7
0 202 -89 434 -199z m2863 -348 l-1 -548 -774 -365 c-426 -201 -782 -366 -790
-368 -13 -3 -15 99 -15 862 0 500 4 866 9 866 5 0 152 -68 327 -150 175 -83
328 -153 339 -156 12 -3 77 22 165 64 80 37 192 90 250 118 58 27 186 88 285
136 99 47 186 87 193 87 9 1 12 -115 12 -546z"/>
</g>
</svg>
