<?xml version="1.0" standalone="no"?>
<!DOCTYPE svg PUBLIC "-//W3C//DTD SVG 20010904//EN"
 "http://www.w3.org/TR/2001/REC-SVG-20010904/DTD/svg10.dtd">
<svg version="1.0" xmlns="http://www.w3.org/2000/svg"
 width="512.000000pt" height="512.000000pt" viewBox="0 0 512.000000 512.000000"
 preserveAspectRatio="xMidYMid meet">

<g transform="translate(0.000000,512.000000) scale(0.100000,-0.100000)"
fill="#000000" stroke="none">
<path d="M195 4251 c-69 -32 -137 -101 -168 -169 -16 -36 -22 -73 -25 -154 -4
-104 -3 -107 21 -132 33 -33 71 -33 102 -1 23 22 25 32 25 107 1 118 37 188
113 217 19 7 243 11 681 11 l653 0 6 -111 c5 -97 9 -116 35 -162 36 -65 107
-111 184 -120 69 -9 1407 -9 1476 0 77 9 148 55 184 120 26 46 30 65 35 162
l6 110 392 3 c370 3 394 4 414 22 27 25 29 86 3 109 -17 16 -174 17 -2048 17
l-2029 0 -60 -29z m3165 -219 c0 -93 -1 -100 -26 -123 l-26 -24 -748 0 -748 0
-26 24 c-25 23 -26 30 -26 123 l0 98 800 0 800 0 0 -98z"/>
<path d="M4546 4261 c-26 -28 -25 -77 2 -104 20 -19 36 -22 164 -27 146 -6
167 -11 205 -52 56 -59 53 4 53 -1298 0 -750 4 -1208 10 -1219 5 -10 22 -24
39 -30 24 -10 34 -10 60 3 17 9 33 26 36 39 3 12 4 571 3 1242 l-3 1220 -22
47 c-29 63 -96 134 -158 166 -47 25 -60 27 -210 30 -152 3 -161 3 -179 -17z"/>
<path d="M38 3584 c-15 -8 -30 -25 -33 -37 -3 -12 -4 -571 -3 -1242 l3 -1220
22 -47 c28 -62 97 -134 154 -163 26 -14 75 -29 110 -35 89 -14 4449 -14 4538
0 83 14 147 47 200 105 66 71 84 122 89 243 5 115 -4 145 -47 160 -30 11 -68
0 -87 -26 -9 -11 -14 -48 -14 -102 -1 -130 -48 -208 -138 -227 -48 -10 -4496
-10 -4544 0 -49 10 -96 51 -119 102 -18 38 -19 97 -19 1242 0 661 -3 1209 -6
1218 -6 15 -54 45 -71 45 -4 -1 -20 -7 -35 -16z"/>
<path d="M1390 3335 c-365 -75 -649 -348 -752 -723 -31 -111 -31 -353 0 -464
50 -183 135 -332 262 -458 144 -144 328 -239 524 -270 96 -16 320 -8 401 14
453 123 755 532 732 991 -23 456 -356 836 -801 914 -81 15 -286 12 -366 -4z
m356 -146 c179 -33 361 -144 480 -293 198 -248 238 -578 105 -862 -23 -48 -53
-103 -67 -121 l-25 -33 -36 47 c-77 104 -176 187 -278 234 -27 13 -52 25 -54
26 -2 1 12 20 31 41 86 95 123 202 115 329 -19 307 -343 496 -621 364 -264
-127 -328 -472 -128 -693 19 -21 33 -40 31 -41 -2 -1 -26 -13 -54 -26 -102
-47 -201 -130 -278 -234 l-36 -47 -25 33 c-14 18 -44 73 -67 121 -134 287 -92
618 110 867 115 142 282 247 455 284 75 17 262 19 342 4z m-46 -401 c54 -23
114 -78 143 -133 17 -32 22 -57 22 -125 0 -76 -3 -91 -30 -139 -48 -87 -154
-151 -250 -151 -96 0 -202 64 -250 151 -27 48 -30 63 -30 139 0 96 13 129 74
193 85 91 205 115 321 65z m73 -727 c139 -49 258 -139 326 -245 25 -40 28 -52
18 -64 -25 -31 -160 -112 -235 -141 -102 -39 -174 -51 -301 -51 -171 0 -322
46 -458 138 -87 59 -88 60 -52 118 81 127 248 237 409 268 58 11 236 -3 293
-23z"/>
<path d="M2956 3238 c-50 -38 -56 -67 -56 -298 0 -235 5 -261 61 -301 l34 -24
710 0 710 0 34 24 c56 40 61 66 61 301 0 233 -6 261 -58 299 l-30 21 -719 0
c-718 -1 -718 -1 -747 -22z m1404 -303 l0 -175 -655 0 -655 0 0 175 0 175 655
0 655 0 0 -175z"/>
<path d="M3000 2418 c-37 -40 -21 -97 34 -118 38 -14 1304 -14 1342 0 55 21
71 78 34 118 l-21 22 -684 0 -684 0 -21 -22z"/>
<path d="M3000 2068 c-37 -40 -21 -97 34 -118 38 -14 1304 -14 1342 0 55 21
71 78 34 118 l-21 22 -684 0 -684 0 -21 -22z"/>
<path d="M3000 1718 c-37 -40 -21 -97 34 -118 38 -14 1304 -14 1342 0 55 21
71 78 34 118 l-21 22 -684 0 -684 0 -21 -22z"/>
</g>
</svg>
