<?xml version="1.0" standalone="no"?>
<!DOCTYPE svg PUBLIC "-//W3C//DTD SVG 20010904//EN"
 "http://www.w3.org/TR/2001/REC-SVG-20010904/DTD/svg10.dtd">
<svg version="1.0" xmlns="http://www.w3.org/2000/svg"
 width="512.000000pt" height="512.000000pt" viewBox="0 0 512.000000 512.000000"
 preserveAspectRatio="xMidYMid meet">

<g transform="translate(0.000000,512.000000) scale(0.100000,-0.100000)"
fill="#000000" stroke="none">
<path d="M3405 5025 c-190 -35 -352 -120 -491 -259 -253 -253 -337 -613 -223
-949 27 -79 29 -91 16 -105 -44 -50 -62 -106 -62 -192 1 -77 4 -91 34 -148 19
-35 48 -74 64 -88 44 -37 117 -71 168 -79 l45 -7 10 -67 c13 -78 50 -165 95
-222 17 -22 30 -41 28 -43 -2 -2 -31 -17 -64 -34 -91 -46 -200 -127 -297 -220
l-88 -85 0 353 c0 248 -4 365 -12 394 -17 58 -99 138 -158 154 -34 10 -203 12
-700 10 -616 -3 -657 -4 -690 -22 -48 -25 -615 -591 -648 -646 -27 -45 -27
-47 -32 -280 l-5 -235 -158 -235 -157 -235 0 -852 0 -853 2160 0 2160 0 0 239
0 238 89 5 c161 9 279 86 348 224 32 66 37 84 41 173 5 99 5 100 34 112 42 17
103 92 118 143 19 68 8 596 -15 696 -43 192 -103 335 -201 482 -118 177 -302
348 -469 435 -38 20 -72 37 -74 39 -2 2 11 21 28 43 45 57 82 144 95 222 l10
67 45 7 c51 8 124 42 168 79 16 14 45 53 64 88 30 56 33 71 34 143 0 70 -4 89
-30 142 l-30 60 18 42 c31 71 47 171 47 296 0 145 -18 234 -66 335 -48 101
-104 172 -193 243 -44 34 -94 87 -122 126 -95 136 -242 233 -401 265 -96 20
-429 20 -533 1z m515 -161 c37 -8 94 -31 127 -50 56 -34 143 -110 143 -125 0
-5 -28 -23 -62 -41 -86 -46 -185 -147 -227 -232 -19 -39 -41 -106 -50 -153
l-16 -85 -66 -62 c-83 -79 -200 -156 -296 -196 -132 -55 -212 -71 -408 -79
-99 -4 -186 -10 -194 -12 -10 -3 -22 19 -39 71 -21 64 -25 95 -26 205 -1 155
13 217 81 355 40 81 60 109 142 190 124 123 231 182 391 215 96 19 413 19 500
-1z m437 -353 c100 -79 168 -185 192 -299 16 -78 14 -257 -4 -327 -9 -33 -17
-60 -18 -62 -2 -1 -33 3 -69 9 -64 11 -67 13 -73 44 -3 18 -21 64 -40 102 -57
113 -168 205 -292 242 -24 7 -43 19 -43 26 0 7 10 39 22 71 15 42 38 74 82
118 54 53 150 114 183 115 6 0 33 -17 60 -39z m-297 -465 c58 -27 119 -88 150
-151 l25 -50 0 -365 0 -365 -34 -63 c-38 -70 -69 -100 -145 -140 l-51 -27
-325 0 -325 0 -51 27 c-76 40 -107 70 -145 140 l-34 63 -3 281 -3 281 102 12
c255 31 483 139 659 313 84 83 92 85 180 44z m-1100 -526 c0 -177 1 -173 -63
-146 -125 52 -126 238 -2 292 66 29 65 31 65 -146z m1529 132 c49 -36 66 -70
66 -132 0 -44 -5 -66 -21 -86 -28 -39 -63 -63 -101 -70 l-33 -6 0 162 0 163
33 -7 c17 -3 43 -14 56 -24z m-2034 -397 l25 -24 0 -820 0 -821 -292 -195
-293 -195 -375 0 -375 0 -293 195 -292 195 0 525 0 525 216 0 c257 0 279 5
349 75 70 70 75 92 75 349 l0 216 615 0 616 0 24 -25z m-1415 -250 c0 -152 -1
-156 -25 -180 -24 -24 -28 -25 -182 -25 l-158 0 180 180 c99 99 181 180 182
180 2 0 3 -70 3 -155z m2275 -267 c39 -11 43 -16 152 -207 l112 -196 -117
-117 c-64 -65 -119 -118 -122 -118 -3 0 -25 138 -49 308 -23 169 -45 318 -48
331 -5 21 -3 23 13 17 10 -4 37 -12 59 -18z m802 0 c-3 -13 -25 -161 -48 -330
-24 -170 -46 -308 -49 -308 -3 0 -58 53 -123 118 l-117 117 112 196 111 195
51 16 c69 21 69 21 63 -4z m-307 -23 c0 -10 -124 -225 -130 -225 -6 0 -130
213 -130 224 0 3 59 6 130 6 72 0 130 -2 130 -5z m-716 -62 c3 -16 33 -221 66
-458 34 -236 64 -432 66 -434 3 -3 53 44 113 103 l108 108 -43 -259 c-24 -142
-44 -267 -44 -279 0 -11 36 -69 80 -127 l80 -107 -280 0 -280 0 0 293 0 292
-156 234 -156 234 18 31 c63 109 206 258 328 341 44 30 83 55 87 55 4 0 10
-12 13 -27z m1266 -24 c214 -147 373 -354 453 -589 52 -154 59 -207 64 -507
l5 -282 -26 -25 -25 -26 -216 0 -215 0 0 283 c0 308 6 355 58 451 15 28 53 76
85 108 l58 57 -41 61 c-22 33 -46 60 -52 60 -6 0 -45 -35 -87 -77 -55 -56 -87
-100 -114 -154 -60 -121 -67 -174 -67 -501 l0 -288 -200 0 -200 0 80 107 c44
58 80 116 80 127 0 12 -20 137 -44 279 l-43 259 108 -108 c60 -59 110 -106
113 -103 2 2 32 198 66 434 67 478 69 485 79 485 4 0 40 -23 81 -51z m-658
-446 c11 -12 35 -132 72 -355 31 -185 56 -346 56 -356 0 -20 -135 -207 -150
-207 -15 0 -150 187 -150 207 0 10 25 171 56 356 53 316 67 372 94 372 4 0 14
-8 22 -17z m-3304 -412 l-3 -71 -62 41 -62 41 62 93 62 93 3 -63 c2 -35 2 -96
0 -134z m2310 103 l61 -92 -37 -24 c-20 -14 -49 -33 -64 -42 l-28 -18 0 138
c0 75 2 135 4 133 1 -2 31 -45 64 -95z m-1718 -767 c0 -1 -169 -171 -375 -377
l-375 -375 0 628 0 627 375 -250 c206 -138 375 -251 375 -253z m1808 -431 l-3
-316 -374 374 -374 374 374 249 374 250 3 -308 c1 -169 1 -450 0 -623z m-513
-36 l400 -400 -1165 0 -1165 0 400 400 400 400 365 0 365 0 400 -400z m1955 0
l0 -400 -241 0 -241 0 4 113 c3 89 8 120 25 152 20 38 103 125 120 125 5 0 14
4 21 9 12 7 10 21 -9 80 -22 68 -25 72 -49 66 -38 -10 -115 -62 -154 -106
l-36 -39 -36 39 c-40 45 -116 96 -155 106 -25 6 -28 3 -48 -56 -26 -78 -26
-86 0 -94 33 -11 108 -84 132 -130 17 -32 22 -63 25 -153 l4 -112 -321 0 -321
0 0 400 0 400 640 0 640 0 0 -400z m480 344 c0 -87 -18 -133 -75 -189 -56 -57
-102 -75 -189 -75 l-56 0 0 160 0 160 160 0 160 0 0 -56z"/>
<path d="M3284 3388 c9 -71 55 -167 107 -222 26 -29 70 -60 117 -84 72 -35 81
-37 172 -37 91 0 100 2 172 37 47 24 91 55 117 84 52 55 98 151 107 222 l7 52
-82 0 c-68 0 -81 -3 -81 -16 0 -108 -125 -224 -240 -224 -115 0 -240 116 -240
224 0 13 -13 16 -81 16 l-82 0 7 -52z"/>
<path d="M1360 3040 l0 -80 480 0 480 0 0 80 0 80 -480 0 -480 0 0 -80z"/>
<path d="M1360 2720 l0 -80 480 0 480 0 0 80 0 80 -480 0 -480 0 0 -80z"/>
<path d="M720 2400 l0 -80 800 0 800 0 0 80 0 80 -800 0 -800 0 0 -80z"/>
<path d="M720 2080 l0 -80 640 0 640 0 0 80 0 80 -640 0 -640 0 0 -80z"/>
<path d="M2160 2080 l0 -80 80 0 80 0 0 80 0 80 -80 0 -80 0 0 -80z"/>
<path d="M720 1760 l0 -80 800 0 800 0 0 80 0 80 -800 0 -800 0 0 -80z"/>
<path d="M1040 1440 l0 -80 480 0 480 0 0 80 0 80 -480 0 -480 0 0 -80z"/>
</g>
</svg>
